HIERARCHY
ROOT Hips
{
	OFFSET -0.001795 -0.223333 0.028219
	CHANNELS 6 Xposition Yposition Zposition Zrotation Yrotation Xrotation 
	JOINT LeftUpLeg
	{
		OFFSET 0.069520 -0.091406 -0.006815
		CHANNELS 3 Zrotation Yrotation Xrotation
		JOINT LeftLeg
		{
			OFFSET 0.034277 -0.375199 -0.004496
			CHANNELS 3 Zrotation Yrotation Xrotation
			JOINT LeftFoot
			{
				OFFSET -0.013596 -0.397961 -0.043693
				CHANNELS 3 Zrotation Yrotation Xrotation
				JOINT LeftToe
				{
					OFFSET 0.026358 -0.055791 0.119288
					CHANNELS 3 Zrotation Yrotation Xrotation
					End Site
					{
						OFFSET 0.000000 0.000000 0.000000
					}
				}
			}
		}
	}
	JOINT RightUpLeg
	{
		OFFSET -0.067670 -0.090522 -0.004320
		CHANNELS 3 Zrotation Yrotation Xrotation
		JOINT RightLeg
		{
			OFFSET -0.038290 -0.382569 -0.008850
			CHANNELS 3 Zrotation Yrotation Xrotation
			JOINT RightFoot
			{
				OFFSET 0.015774 -0.398415 -0.042312
				CHANNELS 3 Zrotation Yrotation Xrotation
				JOINT RightToe
				{
					OFFSET -0.025372 -0.048144 0.123348
					CHANNELS 3 Zrotation Yrotation Xrotation
					End Site
					{
						OFFSET 0.000000 0.000000 0.000000
					}
				}
			}
		}
	}
	JOINT Spine
	{
		OFFSET -0.002533 0.108963 -0.026696
		CHANNELS 3 Zrotation Yrotation Xrotation
		JOINT Spine1
		{
			OFFSET 0.005487 0.135180 0.001092
			CHANNELS 3 Zrotation Yrotation Xrotation
			JOINT Spine2
			{
				OFFSET 0.001457 0.052922 0.025425
				CHANNELS 3 Zrotation Yrotation Xrotation
				JOINT Neck
				{
					OFFSET -0.002778 0.213870 -0.042857
					CHANNELS 3 Zrotation Yrotation Xrotation
					JOINT Head
					{
						OFFSET 0.005152 0.064970 0.051349
						CHANNELS 3 Zrotation Yrotation Xrotation
						End Site
						{
							OFFSET 0.000000 0.000000 0.000000
						}
					}
				}
				JOINT LeftShoulder
				{
					OFFSET 0.078845 0.121749 -0.034090
					CHANNELS 3 Zrotation Yrotation Xrotation
					JOINT LeftArm
					{
						OFFSET 0.090977 0.030469 -0.008868
						CHANNELS 3 Zrotation Yrotation Xrotation
						JOINT LeftForeArm
						{
							OFFSET 0.259612 -0.012772 -0.027456
							CHANNELS 3 Zrotation Yrotation Xrotation
							JOINT LeftHand
							{
								OFFSET 0.249234 0.008986 -0.001171
								CHANNELS 3 Zrotation Yrotation Xrotation
								End Site
								{
									OFFSET 0.000000 0.000000 0.000000
								}
							}
						}
					}
				}
				JOINT RightShoulder
				{
					OFFSET -0.081759 0.118833 -0.038615
					CHANNELS 3 Zrotation Yrotation Xrotation
					JOINT RightArm
					{
						OFFSET -0.096012 0.032551 -0.009143
						CHANNELS 3 Zrotation Yrotation Xrotation
						JOINT RightForeArm
						{
							OFFSET -0.253742 -0.013329 -0.021401
							CHANNELS 3 Zrotation Yrotation Xrotation
							JOINT RightHand
							{
								OFFSET -0.255298 0.007772 -0.005559
								CHANNELS 3 Zrotation Yrotation Xrotation
								End Site
								{
									OFFSET 0.000000 0.000000 0.000000
								}
							}
						}
					}
				}
			}
		}
	}
}
MOTION
Frames: 11
Frame Time: 0.050000
0.038530 0.939395 -0.078688 -2.626017 -3.247650 6.432083 -1.029698 -1.285235 -13.475092 -0.672243 -0.031413 4.294056 5.820874 16.368279 44.073140 0.000000 0.000000 0.000000 1.891992 1.378941 -12.327827 -2.903507 2.143000 24.204877 -4.909471 -9.198063 -9.590637 0.000000 0.000000 0.000000 2.634091 -1.060651 16.233017 1.424682 -0.561770 -2.995306 -5.371818 5.842384 10.558720 13.307431 -2.382132 -36.831747 0.000000 0.000000 0.000000 16.709008 -33.614974 7.943563 10.654210 -45.352422 -7.078263 39.892950 5.155423 1.448474 0.000000 0.000000 0.000000 -1.485611 25.543285 9.099723 10.662914 42.956293 0.810597 -51.283662 13.475674 -4.016850 0.000000 0.000000 0.000000 
0.036515 0.938779 -0.088380 -2.323501 -4.081832 5.469098 -1.075951 -1.229039 -12.840985 -0.899461 0.014530 3.983559 6.199498 16.575321 44.285897 0.000000 0.000000 0.000000 1.607091 1.234024 -11.240120 -2.698853 2.885801 32.086741 -5.242903 -5.381213 -18.736366 0.000000 0.000000 0.000000 2.615151 -0.985259 15.487762 1.496658 -0.604495 -2.922469 -5.236607 5.584608 10.795973 12.611279 -2.396176 -35.738759 0.000000 0.000000 0.000000 12.615277 -33.337056 8.682141 6.492242 -46.198202 -5.672518 42.490299 2.342789 0.640480 0.000000 0.000000 0.000000 2.556442 24.360993 9.466064 18.940402 42.111410 3.087757 -57.813884 25.571192 -10.905049 0.000000 0.000000 0.000000 
0.034012 0.937711 -0.099954 -2.091704 -4.201397 4.598342 -1.174208 -1.211974 -12.524273 -0.799331 0.005035 3.755074 6.332405 16.657926 44.152052 0.000000 0.000000 0.000000 1.707530 1.107793 -10.126855 -3.080667 2.928533 30.871231 -5.283678 -5.074541 -19.268810 0.000000 0.000000 0.000000 2.984368 -0.968850 14.375032 1.551378 -0.669402 -1.761950 -5.428786 4.627714 10.155751 12.259798 -2.566859 -34.441223 0.000000 0.000000 0.000000 8.841514 -32.506016 9.264876 2.549219 -46.939818 -4.240787 44.014941 -0.630820 -0.316807 0.000000 0.000000 0.000000 6.185322 22.495585 9.299876 27.965687 39.028840 5.035982 -63.949343 39.599306 -21.016227 0.000000 0.000000 0.000000 
0.030583 0.936944 -0.113964 -1.914009 -4.943335 3.642831 -0.894373 -1.156836 -12.217186 -1.080524 0.056142 3.503910 6.634491 16.815794 44.439018 0.000000 0.000000 0.000000 1.768008 1.016912 -9.328176 -3.416274 3.036716 29.941080 -5.255448 -4.154862 -19.736267 0.000000 0.000000 0.000000 2.950143 -0.882669 13.374205 1.730219 -0.755553 -1.827031 -5.471170 4.067155 10.684591 11.963727 -2.802417 -33.213445 0.000000 0.000000 0.000000 5.819035 -31.675991 9.650265 -2.766492 -46.920122 -2.296689 46.425051 -4.356447 -1.691812 0.000000 0.000000 0.000000 9.655115 20.607110 8.898114 35.866025 34.298345 5.664121 -68.456596 54.289449 -33.432273 0.000000 0.000000 0.000000 
0.026438 0.935401 -0.130797 -1.876523 -5.536703 3.218106 -0.471929 -1.148752 -12.634945 -1.164532 0.077874 3.178287 6.956317 17.001456 44.603577 0.000000 0.000000 0.000000 2.080366 1.021870 -9.251059 -3.720117 3.105793 29.038032 -5.256994 -3.429794 -20.183078 0.000000 0.000000 0.000000 3.206482 -0.844734 12.355457 1.612689 -0.727218 -1.083085 -5.346516 3.006941 10.241356 11.380043 -2.782787 -32.656121 0.000000 0.000000 0.000000 2.898492 -30.347322 9.914956 -8.509609 -46.029481 -0.209904 49.249559 -8.754733 -3.475155 0.000000 0.000000 0.000000 11.432561 18.507772 7.899260 43.903381 29.134993 5.635650 -74.909403 67.586998 -49.014790 0.000000 0.000000 0.000000 
0.021778 0.933857 -0.150273 -1.760354 -7.030188 2.549510 0.334051 -1.103680 -13.329528 -1.825839 0.182100 3.637287 7.505776 17.275542 45.435904 0.000000 0.000000 0.000000 2.189499 1.013844 -9.149306 -4.051413 3.242959 28.074174 -5.183233 -1.763281 -20.630216 0.000000 0.000000 0.000000 3.182818 -0.779248 11.755222 1.569007 -0.701752 -1.605893 -4.992629 2.111803 11.009680 10.936526 -2.990257 -31.775257 0.000000 0.000000 0.000000 -0.019612 -28.006085 9.823567 -15.353149 -44.792642 1.992564 52.640876 -14.371464 -6.015847 0.000000 0.000000 0.000000 12.662597 15.983370 6.445865 50.115477 24.805211 4.878390 -82.636737 80.378504 -68.402397 0.000000 0.000000 0.000000 
0.016707 0.932188 -0.171873 -1.685011 -8.483052 1.959923 1.414145 -1.011177 -14.200750 -2.690227 0.332937 4.038712 7.911865 17.431429 46.448409 0.000000 0.000000 0.000000 2.646761 1.079646 -9.496763 -4.635301 3.496072 27.486596 -5.114894 -0.283215 -20.863503 0.000000 0.000000 0.000000 3.544752 -0.758923 11.117330 1.254927 -0.573831 -1.128038 -5.001439 0.988981 10.278274 10.880539 -3.446306 -30.064318 0.000000 0.000000 0.000000 -2.973268 -25.662680 9.724690 -22.454183 -42.768426 3.954126 55.810328 -20.705948 -9.173187 0.000000 0.000000 0.000000 12.722277 13.439583 4.819001 55.629100 19.730357 3.304638 161.321322 87.263390 164.070674 0.000000 0.000000 0.000000 
0.010899 0.930335 -0.195386 -1.478787 -9.737737 0.778385 2.073302 -0.865625 -13.515529 -2.902827 0.377702 2.607996 8.224770 17.535389 47.232774 0.000000 0.000000 0.000000 2.881180 1.043847 -9.117752 -4.854348 3.537817 26.562164 -5.017449 1.186365 -21.024345 0.000000 0.000000 0.000000 3.782042 -0.728485 10.677734 1.455687 -0.668009 -1.707943 -5.037620 0.093116 11.132208 11.002634 -3.651154 -30.647294 0.000000 0.000000 0.000000 -5.539984 -23.366292 9.497264 -28.563521 -40.522851 5.163447 58.531002 -26.940612 -12.565026 0.000000 0.000000 0.000000 14.548778 10.220238 2.896502 57.410144 14.768855 0.956104 115.668480 78.666228 107.316245 0.000000 0.000000 0.000000 
0.004168 0.928063 -0.221083 -1.490652 -12.371744 -0.400454 3.528908 -0.596418 -13.016242 -3.498275 0.492192 1.691663 8.969598 17.816940 48.690335 0.000000 0.000000 0.000000 2.970471 0.989113 -8.699666 -4.581243 3.411244 25.147302 -4.758992 4.222094 -21.094816 0.000000 0.000000 0.000000 4.446416 -0.713605 10.118850 0.904524 -0.434004 -1.169346 -4.896333 0.068741 11.204110 10.618202 -3.784668 -29.837279 0.000000 0.000000 0.000000 -6.636830 -21.441698 9.080512 -33.610247 -38.180508 5.839823 59.742590 -31.715694 -15.041051 0.000000 0.000000 0.000000 13.875841 8.848705 1.945488 59.447107 11.306173 -0.805310 110.023824 75.410443 96.868465 0.000000 0.000000 0.000000 
-0.003799 0.925274 -0.249710 -1.177527 -13.418864 -2.025934 4.433689 -0.398478 -11.679933 -3.749517 0.526464 -0.536595 8.859288 17.654637 49.765325 0.000000 0.000000 0.000000 3.832962 0.961802 -8.174575 -5.304298 3.578501 24.278984 -4.612419 5.331229 -20.879996 0.000000 0.000000 0.000000 4.422470 -0.697273 10.582326 1.136559 -0.552228 -0.995039 -5.145896 -0.979603 11.341744 11.108417 -4.140801 -30.269256 0.000000 0.000000 0.000000 -8.235835 -19.644707 8.821188 -37.988371 -35.813283 6.102388 62.301935 -36.732017 -18.244004 0.000000 0.000000 0.000000 14.605145 7.687690 0.976132 58.497182 8.142023 -2.332343 104.122502 74.527354 88.608729 0.000000 0.000000 0.000000 
-0.013135 0.922637 -0.282280 -1.038513 -13.876270 -3.202574 5.297038 -0.258042 -11.682615 -3.385990 0.478705 -1.685841 8.135650 17.121632 51.131465 0.000000 0.000000 0.000000 4.505470 0.824851 -6.984577 -5.204019 3.054373 21.107132 -4.166986 6.419535 -19.892943 0.000000 0.000000 0.000000 4.678550 -0.725464 11.192254 1.287298 -0.628939 -0.378907 -5.386000 -1.343999 10.727820 11.497907 -4.344077 -30.299822 0.000000 0.000000 0.000000 -9.197382 -19.339719 8.928539 -39.466227 -34.083489 5.808229 63.122205 -38.910089 -19.709633 0.000000 0.000000 0.000000 14.834085 6.423559 0.234170 57.822182 6.335518 -3.106785 94.299964 76.455092 80.373207 0.000000 0.000000 0.000000 
